# xmcd
#
# Track frame offsets:
#	150
#	20795
#	32570
#	53150
#	72371
#	92831
#	113591
#	130096
#	148021
#	169685
#
# Disc length: 2562 seconds
#
# Revision: 1
# Processed by: cddbd v1.5PL3 Copyright (c) Steve Scherf et al.
# Submitted via: CDex 1.50Beta5
#
DISCID=860a000a
DTITLE=Relaxation Melody 〜自然の音とオルゴールのハーモニー〜 - 2002 Have A Break Vol.1
DYEAR=2002
DGENRE=Pop
TTITLE0=キラキラ
TTITLE1=Yes-No
TTITLE2=毎日がスペシャル
TTITLE3=元気を出して
TTITLE4=Loveland, Island
TTITLE5=Get Back In Love
TTITLE6=ダンデライオン
TTITLE7=Hello, My Friend
TTITLE8=オリビアを聴きながら
TTITLE9=Summer Candles
EXTD=
EXTT0=
EXTT1=
EXTT2=
EXTT3=
EXTT4=
EXTT5=
EXTT6=
EXTT7=
EXTT8=
EXTT9=
PLAYORDER=
